<svg width="36" height="36" viewBox="0 0 36 36" fill="none" xmlns="http://www.w3.org/2000/svg">
<path d="M22.565 23.9792C25.0861 26.5004 25.0861 30.588 22.565 33.1091C20.0438 35.6303 15.9562 35.6303 13.435 33.1091C10.9139 30.588 10.9139 26.5004 13.435 23.9792C15.9562 21.458 20.0438 21.458 22.565 23.9792ZM33.1091 22.565C30.5879 25.0861 26.5003 25.0861 23.9792 22.565C21.458 20.0438 21.458 15.9562 23.9792 13.435C26.5003 10.9139 30.5879 10.9139 33.1091 13.435C35.6303 15.9562 35.6303 20.0438 33.1091 22.565ZM22.565 2.89087C25.0861 5.41203 25.0861 9.49965 22.565 12.0208C20.0438 14.542 15.9562 14.542 13.435 12.0208C10.9139 9.49965 10.9139 5.41203 13.435 2.89087C15.9562 0.369709 20.0438 0.369709 22.565 2.89087ZM12.0208 13.435C14.542 15.9562 14.542 20.0438 12.0208 22.565C9.49966 25.0861 5.41204 25.0861 2.89087 22.565C0.369709 20.0438 0.369709 15.9562 2.89087 13.435C5.41204 10.9139 9.49966 10.9139 12.0208 13.435Z" stroke="white" stroke-width="2"/>
</svg>
